<svg width="36" height="30" viewBox="0 0 36 30" fill="none" xmlns="http://www.w3.org/2000/svg">
<path d="M32.9133 0.00026838H2.61804C1.15938 0.00026838 0 1.20341 0 2.63177V27.3685C0 28.8347 1.19698 30 2.61804 30H32.8759C34.3346 30 35.4939 28.8347 35.4939 27.3685L35.4942 2.63177C35.5315 1.16561 34.3345 0 32.9134 0L32.9133 0.00026838ZM11.2204 2.70702C11.8562 2.70702 12.3425 3.23332 12.3425 3.8349C12.3425 4.47397 11.8189 4.96279 11.2204 4.96279C10.5846 4.96279 10.0983 4.43649 10.0983 3.8349C10.0983 3.19584 10.5846 2.70702 11.2204 2.70702ZM7.77946 2.70702C8.41525 2.70702 8.90157 3.23332 8.90157 3.8349C8.90157 4.47397 8.37796 4.96279 7.77946 4.96279C7.14366 4.96279 6.65734 4.43649 6.65734 3.8349C6.65734 3.19584 7.18095 2.70702 7.77946 2.70702ZM4.33851 2.70702C4.97431 2.70702 5.46063 3.23332 5.46063 3.8349C5.46063 4.47397 4.93702 4.96279 4.33851 4.96279C3.74003 4.96279 3.2164 4.43649 3.2164 3.8349C3.2164 3.19584 3.74001 2.70702 4.33851 2.70702ZM32.1279 26.3911C32.1279 26.5039 32.053 26.5791 31.9408 26.5791H3.59043C3.47824 26.5791 3.40337 26.5039 3.40337 26.3911V7.707H32.1278L32.1279 26.3911Z" fill="#DCDCDC"/>
</svg>
